<svg preserveAspectRatio="none" width="100%" height="100%" overflow="visible" style="display: block;" viewBox="0 0 80.5375 28" fill="none" xmlns="http://www.w3.org/2000/svg">
<g id="Layer 1">
<path id="Vector" d="M80.4896 9.29424C80.4416 6.02065 77.1121 4.30527 71.5238 4.30527H67.1581C61.5645 4.30527 58.2457 6.02065 58.1924 9.29424L58.1444 11.3772V25.5716H63.3678V21.3977H75.3168V25.5716H80.5375V11.3772L80.4896 9.29424ZM63.3678 17.674V11.3772C63.3678 10.3757 63.9272 8.97993 66.4469 8.97993H72.235C74.7521 8.97993 75.3141 10.3677 75.3141 11.3772V17.674H63.3678Z" fill="var(--fill-0, #474747)"/>
<path id="Vector_2" d="M39.9385 6.04116L49.5462 7.37297L52.106 6.92548L39.4484 4.69336C38.9617 4.59056 38.4688 4.51938 37.9728 4.48027C37.7064 4.48027 36.7981 4.64009 36.4945 4.69336L27.1452 6.47266C25.2194 6.89352 25.1634 8.90455 25.1634 9.13629V19.4445C25.1634 20.8376 26.3407 21.4742 27.0439 21.6313L37.4614 23.4959C37.6306 23.5246 37.8014 23.5432 37.9728 23.5518C38.1362 23.5436 38.2989 23.5258 38.4602 23.4985L48.8484 21.634C50.1242 21.4103 50.7742 20.5313 50.7742 19.0183V16.3174H46.8799V19.3273C46.8427 19.6736 46.8959 21.096 45.1859 21.3703C44.6318 21.4582 41.7232 21.8311 39.7814 22.0815C39.1102 22.1641 38.2898 22.2093 37.9781 22.2093C37.444 22.2051 36.9105 22.1722 36.3799 22.1108L30.6798 21.4023C28.9111 21.0986 28.9697 19.924 28.9697 19.3167V9.24283C28.9697 8.34253 29.3906 7.3783 30.5679 7.13058L36.0923 6.06513C36.7144 5.93368 37.3477 5.86232 37.9834 5.85204C38.639 5.86485 39.2927 5.92808 39.9385 6.04116Z" fill="var(--fill-0, #FF943A)"/>
<path id="Vector_3" d="M33.41 15.8087H37.464V11.6375L33.41 11.8506V15.8087Z" fill="var(--fill-0, #FF943A)"/>
<path id="Vector_4" d="M53.5604 4.57344C53.5819 4.27334 53.491 3.97596 53.3054 3.73915C53.1198 3.50235 52.8528 3.34305 52.5562 3.29224L39.6004 0.186454C39.0659 0.0676547 38.5204 0.00516261 37.9729 0C37.4191 0.00582655 36.8674 0.0692062 36.3268 0.189117L27.3504 2.34132C24.5242 2.99391 22.3747 3.83295 22.3747 8.25723V19.5057C22.3747 24.2656 24.0448 25.0993 26.4554 25.7998L36.4493 27.8428H36.4733C36.9633 27.9436 37.462 27.9962 37.9622 28C38.4679 27.9959 38.9719 27.9423 39.4672 27.8402H39.4885L49.4691 25.7998C53.2221 24.9368 53.5497 22.774 53.5497 19.5057V12.2527L37.9622 11.6214V15.8086H51.2803V19.0183C51.2803 21.5594 49.6182 22.0175 48.9337 22.1374L39.4938 23.8288L38.4683 24.0099C38.3008 24.0362 38.1317 24.0522 37.9622 24.0578C37.7891 24.051 37.6166 24.0341 37.4455 24.0072L35.9698 23.7409L26.9322 22.1267C25.8667 21.8896 24.6441 20.992 24.6441 19.4391V9.1309C24.6441 8.17998 25.0943 6.39269 27.0414 5.97184L30.4508 5.32724L37.2484 4.05137C37.4881 4.01038 37.73 3.98369 37.9729 3.97146C38.4944 4.0132 39.013 4.08614 39.5258 4.18988L53.5604 6.65906V4.57344Z" fill="var(--fill-0, #FF943A)"/>
<path id="Vector_5" d="M17.8623 8.07164V4.30527H11.7626H6.52055H0V8.07164H6.52055V21.8026H0V25.5663H6.52055H11.7626H17.8623V21.8026H11.7626V8.07164H17.8623Z" fill="var(--fill-0, #474747)"/>
</g>
</svg>
