<svg preserveAspectRatio="none" width="100%" height="100%" overflow="visible" style="display: block;" viewBox="0 0 32 32" fill="none" xmlns="http://www.w3.org/2000/svg">
<path id="Subtract" d="M19.2002 0C23.6805 1.82671e-10 25.9206 0.000145499 27.6318 0.87207C29.1371 1.63906 30.3609 2.86287 31.1279 4.36816C31.9999 6.07943 32 8.31953 32 12.7998V19.2002C32 23.6805 31.9999 25.9206 31.1279 27.6318C30.3609 29.1371 29.1371 30.3609 27.6318 31.1279C25.9206 31.9999 23.6805 32 19.2002 32H12.7998C8.31953 32 6.07943 31.9999 4.36816 31.1279C2.86287 30.3609 1.63906 29.1371 0.87207 27.6318C0.00014556 25.9206 1.84466e-10 23.6805 0 19.2002V12.7998C1.82671e-10 8.31953 0.000145499 6.07943 0.87207 4.36816C1.63906 2.86287 2.86287 1.63906 4.36816 0.87207C6.07943 0.00014556 8.31953 1.84466e-10 12.7998 0H19.2002ZM23.5713 8.36426C22.8743 8.42648 22.0576 8.8048 21.4062 9.06641C16.0851 11.2036 10.8478 13.5611 5.55371 15.7637C4.59902 16.1968 3.9974 16.9988 5.30664 17.5176C6.2349 17.8854 7.52856 18.27 8.50391 18.5029C9.64261 18.775 10.4274 18.5971 11.3955 17.9902C14.1179 16.2832 16.7294 14.3762 19.3926 12.5801C19.8716 12.3232 20.1093 12.819 19.8037 13.1709C18.3199 14.606 16.8438 16.0497 15.375 17.498C14.9722 17.8951 13.7729 18.9286 13.5742 19.3652C13.3526 19.8535 13.525 20.3115 13.8633 20.6875C15.8636 21.9753 17.7775 23.4344 19.79 24.7041C20.3095 25.0318 21.4615 25.5774 22.0117 25.1416C22.7825 24.5299 23.1122 22.1127 23.2832 21.1445C23.8194 18.1105 24.2937 15.0093 24.708 11.9551C24.8048 11.2412 24.9578 10.4201 24.9961 9.71191C25.0511 8.69914 24.5736 8.27503 23.5713 8.36426Z" fill="var(--fill-0, #474747)"/>
</svg>
