<svg preserveAspectRatio="none" width="100%" height="100%" overflow="visible" style="display: block;" viewBox="0 0 32 32" fill="none" xmlns="http://www.w3.org/2000/svg">
<path id="Subtract" d="M19.2002 0C23.6805 1.82671e-10 25.9206 0.000145499 27.6318 0.87207C29.1371 1.63906 30.3609 2.86287 31.1279 4.36816C31.9999 6.07943 32 8.31953 32 12.7998V19.2002C32 23.6805 31.9999 25.9206 31.1279 27.6318C30.3609 29.1371 29.1371 30.3609 27.6318 31.1279C25.9206 31.9999 23.6805 32 19.2002 32H12.7998C8.31953 32 6.07943 31.9999 4.36816 31.1279C2.86287 30.3609 1.63906 29.1371 0.87207 27.6318C0.00014556 25.9206 1.84466e-10 23.6805 0 19.2002V12.7998C1.82671e-10 8.31953 0.000145499 6.07943 0.87207 4.36816C1.63906 2.86287 2.86287 1.63906 4.36816 0.87207C6.07943 0.00014556 8.31953 1.84466e-10 12.7998 0H19.2002ZM17.7012 10.5479H5V25.127H8.6084V20.3838H15.2588L18.4141 25.127H22.4551L18.9766 20.3623C20.259 20.1698 20.8346 19.7711 21.3096 19.1152C21.7845 18.4594 22.0234 17.4111 22.0234 16.0117V14.918C22.0234 14.0882 21.9366 13.4323 21.7852 12.9297C21.6337 12.427 21.3744 11.9894 21.0068 11.5967C20.6186 11.2249 20.1859 10.9635 19.667 10.7881C19.148 10.635 18.4996 10.5469 17.7012 10.5469V10.5479ZM17.1172 13.7627C17.6142 13.7627 17.9604 13.8498 18.1338 14.0029C18.3072 14.1561 18.4141 14.4405 18.4141 14.8555V16.0791C18.4141 16.5163 18.3072 16.8009 18.1338 16.9541C17.9604 17.1073 17.6142 17.1729 17.1172 17.1729V17.1709H8.6084V13.7627H17.1172ZM25.2275 5C23.6966 5.00019 22.4561 6.24147 22.4561 7.77246C22.4561 9.30338 23.6966 10.5447 25.2275 10.5449C26.7586 10.5449 27.9999 9.3035 28 7.77246C28 6.24135 26.7587 5 25.2275 5Z" fill="var(--fill-0, #474747)"/>
</svg>
