<svg preserveAspectRatio="none" width="100%" height="100%" overflow="visible" style="display: block;" viewBox="0 0 32 32" fill="none" xmlns="http://www.w3.org/2000/svg">
<path id="Subtract" d="M19.2002 0C23.6805 1.82671e-10 25.9206 0.000145499 27.6318 0.87207C29.1371 1.63906 30.3609 2.86287 31.1279 4.36816C31.9999 6.07943 32 8.31953 32 12.7998V19.2002C32 23.6805 31.9999 25.9206 31.1279 27.6318C30.3609 29.1371 29.1371 30.3609 27.6318 31.1279C25.9206 31.9999 23.6805 32 19.2002 32H12.7998C8.31953 32 6.07943 31.9999 4.36816 31.1279C2.86287 30.3609 1.63906 29.1371 0.87207 27.6318C0.00014556 25.9206 1.84466e-10 23.6805 0 19.2002V12.7998C1.82671e-10 8.31953 0.000145499 6.07943 0.87207 4.36816C1.63906 2.86287 2.86287 1.63906 4.36816 0.87207C6.07943 0.00014556 8.31953 1.84466e-10 12.7998 0H19.2002ZM4 8.75C4.19485 18.1042 8.87237 23.7256 17.0723 23.7256H17.5361V18.374C20.5492 18.6738 22.8278 20.8774 23.7422 23.7256H28C26.8307 19.4683 23.7577 17.1143 21.8389 16.2148C23.7576 15.1054 26.456 12.4075 27.1006 8.75H23.2324C22.3929 11.7181 19.9046 14.4161 17.5361 14.6709V8.75H13.6689V19.123C11.2705 18.5234 8.24234 15.6157 8.10742 8.75H4Z" fill="var(--fill-0, #474747)"/>
</svg>
