<svg width="24" height="24" viewBox="0 0 24 24" fill="none" xmlns="http://www.w3.org/2000/svg">
<path d="M16.6318 7.26953C16.4109 7.28934 16.1716 7.35989 15.9365 7.44531C15.7016 7.53071 15.4698 7.63149 15.2646 7.71387C12.7453 8.72575 10.255 9.81563 7.75781 10.8838L5.25684 11.9414C5.10579 12.0099 4.96846 12.0931 4.86035 12.1846C4.75234 12.2761 4.67286 12.3767 4.63867 12.4795C4.60437 12.5828 4.61566 12.6881 4.68848 12.7881C4.76099 12.8876 4.89421 12.9813 5.10156 13.0635C5.68812 13.2959 6.50509 13.5394 7.12109 13.6865C7.48148 13.7726 7.78675 13.7873 8.07812 13.7324C8.36934 13.6775 8.64697 13.5523 8.95312 13.3604C10.2418 12.5522 11.4912 11.6737 12.7441 10.8066L14 9.94629C14.0742 9.90651 14.1382 9.89674 14.1895 9.90625C14.2407 9.91584 14.2802 9.9453 14.3047 9.98633C14.3534 10.0684 14.3442 10.1979 14.25 10.3066C13.3133 11.2127 12.3814 12.1238 11.4541 13.0381C11.3906 13.1007 11.2953 13.1883 11.1865 13.2891C11.0778 13.3898 10.9554 13.5037 10.8369 13.6182C10.7186 13.7326 10.6044 13.8482 10.5117 13.9521C10.4192 14.056 10.3473 14.1496 10.3154 14.2197C10.1917 14.4929 10.2607 14.7507 10.4238 14.9707L10.499 15.0625L10.501 15.0635C11.1323 15.4699 11.7504 15.9039 12.3691 16.3359C12.9878 16.7679 13.6078 17.1988 14.2432 17.5996C14.4075 17.7032 14.6717 17.8411 14.9385 17.9189C15.072 17.9579 15.2068 17.9827 15.3301 17.9795C15.4533 17.9763 15.5657 17.9452 15.6543 17.875C15.7776 17.7772 15.8829 17.6077 15.9727 17.4004C16.0624 17.193 16.1371 16.9465 16.2002 16.6934C16.3266 16.1868 16.406 15.6519 16.46 15.3467C16.7985 13.4313 17.0978 11.4739 17.3594 9.5459C17.4204 9.09578 17.5169 8.57649 17.541 8.12891C17.5584 7.80805 17.4916 7.57775 17.3389 7.43555C17.1871 7.29443 16.9523 7.24128 16.6377 7.26855M16.6318 7.26953L16.6309 7.25586L16.6377 7.26855M16.6318 7.26953L16.6328 7.27734M16.6318 7.26953L16.6328 7.27441V7.27734M16.6318 7.26953H16.6328V7.27734M16.6318 7.26953L16.6377 7.26855M16.6377 7.26855L16.6406 7.27441L16.6328 7.27734M11.5947 0.015625C18.5632 -0.22222 24.2525 5.50743 23.9824 12.4648C23.7046 19.6154 17.3039 24.9122 10.208 23.8584C4.7268 23.0443 0.477384 18.4797 0.0449219 12.9531C-0.48781 6.13931 4.77058 0.248554 11.5947 0.015625Z" fill="white" stroke="white" stroke-width="0.0163022"/>
</svg>
