<svg preserveAspectRatio="none" width="100%" height="100%" overflow="visible" style="display: block;" viewBox="0 0 2769.47 1031.2" fill="none" xmlns="http://www.w3.org/2000/svg">
<g id="Wave">
<path id="Vector" d="M51.3416 247.468C116.06 355.729 180.778 463.991 245.496 423.53C310.209 383.07 330.353 236.984 439.646 212.255C514.805 195.25 561.428 221.003 633.8 247.468C696.483 270.39 763.231 286.288 827.949 153.568C892.668 20.8481 957.386 -46.4858 1022.1 36.1929C1086.82 118.872 1151.54 198.423 1216.25 270.39C1280.97 342.358 1326.17 361.218 1410.41 364.843C1490.99 368.311 1539.84 327.904 1604.56 294.418C1669.28 260.932 1743.48 225.325 1798.71 225.325C1853.94 225.325 1945.77 229.677 2010.48 334.43C2075.2 439.182 2145 525.419 2209.72 423.53C2274.44 321.641 2288.22 297.089 2352.94 212.561C2417.66 128.032 2510.61 136.128 2575.32 212.255C2640.04 288.383 2704.76 338.35 2769.47 388.318V1010.41C2704.76 1010.41 2640.04 1010.41 2575.32 1010.41C2510.61 1010.41 2445.89 1010.41 2381.17 1010.41C2316.45 1010.41 2251.73 1010.41 2187.02 1010.41C2122.3 1010.41 2057.58 1010.41 1992.87 1010.41C1928.15 1010.41 1863.43 1010.41 1798.71 1010.41C1733.99 1010.41 1669.28 1010.41 1604.56 1010.41C1539.84 1010.41 1475.13 1010.41 1410.41 1010.41C1345.69 1010.41 1280.97 1010.41 1216.25 1010.41C1151.54 1010.41 1086.82 1010.41 1022.1 1010.41C957.386 1010.41 892.668 1010.41 827.949 1010.41C763.231 1010.41 698.518 1010.41 633.8 1010.41C569.082 1010.41 504.364 1010.41 439.646 1010.41C374.927 1010.41 310.209 1010.41 245.496 1010.41C180.778 1010.41 116.06 1010.41 51.3416 1010.41L51.3416 247.468Z" fill="var(--fill-0, #FC821C)"/>
<g id="Vector_2">
</g>
<path id="Vector_3" d="M17.7454 467.108C82.4635 521.184 147.182 575.264 211.9 626.933C276.613 678.602 341.331 633.854 406.049 542.32C470.767 450.785 489.064 362.703 553.782 348.108C618.5 333.514 729.635 486.423 794.353 532.918C859.071 579.414 923.789 469.273 988.508 382.494C1053.23 295.714 1165.04 327.756 1229.76 412.148C1294.48 496.54 1312.09 633.283 1376.81 636.335C1441.53 639.387 1506.25 413.278 1570.97 382.494C1635.68 351.71 1700.4 556.852 1765.12 582.92C1829.83 608.989 1841.01 484.048 1905.73 495.162C1970.45 506.277 2052.11 593.162 2116.83 673.05C2181.54 752.939 2315.38 674.67 2380.1 673.05C2444.82 671.431 2477.01 766.15 2541.72 749.153C2606.44 732.157 2671.16 726.55 2735.88 720.949V1031.2C2671.16 1031.2 2606.44 1031.2 2541.72 1031.2C2477.01 1031.2 2412.29 1031.2 2347.57 1031.2C2282.86 1031.2 2218.14 1031.2 2153.42 1031.2C2088.7 1031.2 2023.99 1031.2 1959.27 1031.2C1894.55 1031.2 1829.83 1031.2 1765.12 1031.2C1700.4 1031.2 1635.68 1031.2 1570.97 1031.2C1506.25 1031.2 1441.53 1031.2 1376.81 1031.2C1312.09 1031.2 1247.38 1031.2 1182.66 1031.2C1117.94 1031.2 1053.23 1031.2 988.508 1031.2C923.789 1031.2 859.071 1031.2 794.353 1031.2C729.635 1031.2 664.922 1031.2 600.204 1031.2C535.486 1031.2 470.767 1031.2 406.049 1031.2C341.331 1031.2 276.613 1031.2 211.9 1031.2C147.182 1031.2 82.4635 1031.2 17.7454 1031.2L17.7454 467.108Z" fill="var(--fill-0, #FF943A)"/>
<g id="Vector_4">
</g>
<path id="Vector_5" d="M0 799.273C64.7181 735.463 129.436 671.653 194.154 654.592C258.868 637.532 323.586 667.223 388.304 682.595C453.022 697.967 517.74 699.02 582.458 738.601C647.176 778.181 633.517 819.981 698.235 804.971C762.953 789.96 803.018 653.5 894.768 611.532C995.859 565.291 1061.39 638.603 1164.91 701.264C1241.4 747.562 1294.35 781.13 1359.07 822.609C1423.78 864.088 1488.5 903.035 1553.22 887.949C1617.93 872.863 1682.65 803.743 1747.37 799.273C1812.09 794.804 1876.81 854.983 1941.52 836.611C2006.24 818.238 2070.96 721.31 2135.67 691.929C2200.39 662.548 2265.11 700.714 2329.83 715.265C2394.55 729.816 2459.26 720.756 2523.98 724.599C2588.7 728.443 2653.41 745.188 2718.13 761.936V967.291C2653.41 967.291 2588.7 967.291 2523.98 967.291C2459.26 967.291 2394.55 967.291 2329.83 967.291C2265.11 967.291 2200.39 967.291 2135.67 967.291C2070.96 967.291 2006.24 967.291 1941.52 967.291C1876.81 967.291 1812.09 967.291 1747.37 967.291C1682.65 967.291 1617.93 967.291 1553.22 967.291C1488.5 967.291 1423.78 967.291 1359.07 967.291C1294.35 967.291 1229.63 967.291 1164.91 967.291C1100.2 967.291 1035.48 967.291 970.762 967.291C906.044 967.291 841.326 967.291 776.608 967.291C711.89 967.291 647.176 967.291 582.458 967.291C517.74 967.291 453.022 967.291 388.304 967.291C323.586 967.291 258.868 967.291 194.154 967.291C129.436 967.291 64.7181 967.291 0 967.291L0 799.273Z" fill="var(--fill-0, #FFA559)"/>
<g id="Vector_6">
</g>
</g>
</svg>
